<?xml version="1.0" encoding="iso-8859-1"?>
<!-- Generator: Adobe Illustrator 19.0.0, SVG Export Plug-In . SVG Version: 6.00 Build 0)  -->
<svg version="1.1" id="Capa_1" xmlns="http://www.w3.org/2000/svg" xmlns:xlink="http://www.w3.org/1999/xlink" x="0px" y="0px"
	 viewBox="0 0 58 58" style="enable-background:new 0 0 58 58;" xml:space="preserve">
<path style="fill:#546A79;" d="M54.502,43.75H3.498C1.566,43.75,0,42.184,0,40.252V10.248C0,8.316,1.566,6.75,3.498,6.75h51.003
	C56.434,6.75,58,8.316,58,10.248v30.003C58,42.184,56.434,43.75,54.502,43.75z"/>
<path style="fill:#38454F;" d="M58,38.75H0V10.599C0,10.13,0.38,9.75,0.849,9.75h56.302C57.62,9.75,58,10.13,58,10.599V38.75z"/>
<path style="fill:#AFB6BB;" d="M38.5,46.75H35v-3h-2v3h-8v-3h-2v3h-3.5c-1.93,0-3.5,1.57-3.5,3.5c0,0.552,0.447,1,1,1s1-0.448,1-1
	c0-0.827,0.673-1.5,1.5-1.5H23h12h3.5c0.827,0,1.5,0.673,1.5,1.5c0,0.552,0.447,1,1,1s1-0.448,1-1C42,48.32,40.43,46.75,38.5,46.75z
	"/>
<rect x="28" y="38.75" style="fill:#66808E;" width="2" height="5"/>
<g>
</g>
<g>
</g>
<g>
</g>
<g>
</g>
<g>
</g>
<g>
</g>
<g>
</g>
<g>
</g>
<g>
</g>
<g>
</g>
<g>
</g>
<g>
</g>
<g>
</g>
<g>
</g>
<g>
</g>
</svg>
